<?xml version="1.0" encoding="UTF-8" standalone="no"?>
<svg xmlns="http://www.w3.org/2000/svg" width="256" height="272" viewBox="0 0 256 272">
  <path fill="#DD0031" d="M125.908 30.0074L125.908 30.0074L125.908 30.0074L0 98.7296L19.118 234.095L125.908 297.53L232.781 234.095L252 98.7296L125.908 30.0074Z"></path>
  <path fill="#C3002F" d="M125.908 30.0074L125.908 30.0074L125.908 30.0074L125.908 30.0074V297.53L232.781 234.095L252 98.7296L125.908 30.0074Z"></path>
  <path fill="#FFFFFF" d="M126 52.9843L126 52.9843L126 52.9843L58.2313 231.687L87.9785 231.494L104.946 190.629L147.376 190.629L165.026 231.494L194.225 231.687L126 52.9843ZM126 117.443L142.405 163.493H110.523L126 117.443Z"></path>
</svg> 