<?xml version="1.0" encoding="UTF-8" standalone="no"?>
<svg xmlns="http://www.w3.org/2000/svg" width="256" height="204" viewBox="0 0 256 204">
  <path fill="#7610F7" d="M53.172 0C38.565 0 27.756 12.38 28.24 26.99l10.12 146.628c.484 14.608 11.87 26.99 26.477 26.99h99.313c14.62 0 26.003-12.39 26.477-26.99l10.125-146.63c.484-14.61-10.34-26.99-24.947-26.99H53.172h0Z"></path>
  <path fill="#fff" d="M131.292 81.93c13.027 0 20.922-6.252 20.922-16.688c0-9.81-6.125-16.414-19.903-16.414h-22.931v33.102h21.912ZM106.580 32.443h27.301c22.895 0 37.95 10.707 37.95 31.712c0 21.467-18.357 33.314-41.9 33.314h-23.351v37.326H87.223V32.443h19.358Zm37.592 81.698c13.452 0 22.074-6.128 22.074-18.335c0-12.612-8.927-18.334-24.915-18.334h-23.35v36.67h26.191Zm-34.135-54.022h20.376c19.64 0 29.511-7.411 29.511-20.6c0-12.82-9.124-20.437-25.987-20.437h-23.9v41.037Z"></path>
</svg> 