<?xml version="1.0" encoding="UTF-8" standalone="no"?>
<svg xmlns="http://www.w3.org/2000/svg" width="256" height="140" viewBox="0 0 256 140">
  <path fill="#222222" d="M40.53 77.8v-35.2h1.2l30.2 26.8v-24.8h5v35.2h-1.2l-30.2-26.4v24.4h-5Zm73.5-5.2c1.96 0 3.4-.27 4.32-.8c1.36-.75 2.04-2.1 2.04-4.04c0-1.76-.59-3.01-1.76-3.76c-1.03-.65-2.65-.98-4.85-.98h-7.86v9.58h8.11Zm-13.11-29.2h13.81c3.04 0 5.52.57 7.44 1.71a6.48 6.48 0 0 1 3.4 6.12c0 2.01-.51 3.63-1.52 4.86c-1.01 1.23-2.3 2.06-3.89 2.49v.24c2.85.6 4.86 1.52 6.01 2.76c1.15 1.24 1.73 3.08 1.73 5.5c0 1.18-.23 2.32-.7 3.43c-.47 1.1-1.21 2.12-2.23 3.05c-1.02.93-2.35 1.67-4 2.23c-1.64.56-3.68.85-6.11.85h-14.83v-33.2l.9-.04Zm13.26 12.33c2.38 0 4.14-.4 5.29-1.2c1.15-.8 1.73-2.24 1.73-4.32c0-2.2-.72-3.7-2.15-4.49c-1.43-.79-3.3-1.19-5.59-1.19h-7.43v11.2h8.15Zm44.61 22.09h-23.83c.24 3.35 1.28 5.82 3.11 7.4c1.83 1.59 4.03 2.38 6.59 2.38c3.16 0 5.88-1.05 8.17-3.14l2.77 3.6c-1.3 1.32-2.94 2.38-4.93 3.2c-1.98.81-4.18 1.22-6.59 1.22c-3 0-5.56-.5-7.68-1.5a15.22 15.22 0 0 1-5.3-4.08a16.84 16.84 0 0 1-3.07-6.05a27.1 27.1 0 0 1-.01-14.8c.7-2.23 1.71-4.22 3.04-5.97a14.14 14.14 0 0 1 5.22-4.08c2.12-.99 4.55-1.49 7.28-1.49c2.66 0 5 .47 7.04 1.4c2.04.94 3.76 2.27 5.13 3.99a17.29 17.29 0 0 1 3.11 6.05c.7 2.35 1.01 4.92.94 7.72l.01.05Zm-5.16-5.6c-.08-1.47-.37-2.87-.86-4.21c-.49-1.33-1.15-2.5-1.98-3.5a9.58 9.58 0 0 0-3.14-2.42c-1.23-.59-2.62-.88-4.16-.88c-3 0-5.33.94-7 2.82c-1.67 1.87-2.65 4.63-2.95 8.27l20.09-.08Zm47.3-5.4c0-1.5-.37-2.69-1.09-3.56c-.73-.88-1.92-1.32-3.57-1.32c-1.79 0-3.39.47-4.8 1.4c-1.43.94-2.53 2.1-3.32 3.48v20.67h-5.08v-28.8h4.8v5.04c1.03-1.66 2.38-2.97 4.05-3.95c1.67-.97 3.63-1.46 5.88-1.46c3.12 0 5.5.82 7.13 2.46c1.63 1.64 2.45 4.02 2.45 7.13v19.58h-5.09v-19.6l-.36-.07Zm11.15 19.58v-28.8h5.09v28.8h-5.09Zm-.2-36.67a3.4 3.4 0 0 1 .94-2.54a3.32 3.32 0 0 1 2.58-.97c1.02 0 1.9.33 2.62.97a3.37 3.37 0 0 1 .94 2.54a3.46 3.46 0 0 1-.94 2.58a3.32 3.32 0 0 1-2.62 1.02c-1.02 0-1.88-.34-2.58-1.02a3.46 3.46 0 0 1-.94-2.58Zm31.42 36.67l-11.31-28.8h5.37l8.62 22.15h.16l8.62-22.15h5.21l-11.32 28.8h-5.35Z"></path>
</svg> 