<?xml version="1.0" encoding="UTF-8" standalone="no"?>
<svg xmlns="http://www.w3.org/2000/svg" width="256" height="256" viewBox="0 0 256 256">
  <path fill="#F05032" d="M251.17 116.6L139.4 4.82a16.49 16.49 0 0 0-23.31 0l-23.21 23.2 29.44 29.45a19.57 19.57 0 0 1 24.8 24.96l28.37 28.38a19.59 19.59 0 1 1-11.75 11.06L137.28 95.4v69.64a19.46 19.46 0 1 1-16.01-.41V94.2a19.56 19.56 0 0 1-10.6-25.63L81.53 39.44 4.83 116.14a16.49 16.49 0 0 0 0 23.32L116.6 251.22a16.49 16.49 0 0 0 23.32 0l111.25-111.25a16.5 16.5 0 0 0 0-23.33"></path>
</svg> 