<?xml version="1.0" encoding="UTF-8" standalone="no"?>
<svg xmlns="http://www.w3.org/2000/svg" width="256" height="361" viewBox="0 0 256 361">
  <path fill="#E44D26" d="M255.555 70.766l-23.241 260.36-104.47 28.962-104.182-28.922L.445 70.766h255.11z"></path>
  <path fill="#F16529" d="M128 337.95l84.417-23.403 19.86-222.49H128V337.95z"></path>
  <path fill="#EBEBEB" d="M128 155.932H82.507l-3.14-35.174H128v-34.458H45.1l.82 9.202 8.416 94.431H128v-34.001zm0 85.898h-.23l-41.42-11.182-2.648-29.64H49.43l5.213 58.406 73.125 20.3.232-.064v-37.82z"></path>
  <path fill="#FFFFFF" d="M127.89 155.932v34.002h41.93l-3.948 44.115-37.982 10.24v37.822l69.934-19.37 .514-5.773 8.016-89.78 .832-9.16h-79.296zm0-34.458v34.458h82.28l.683-7.646 1.55-17.61 .82-9.202H127.89z"></path>
</svg> 