<?xml version="1.0" encoding="UTF-8" standalone="no"?>
<svg xmlns="http://www.w3.org/2000/svg" width="256" height="552" viewBox="0 0 256 552">
  <path fill="#13AA52" d="M175.622 61.108C152.612 33.807 132.797 6.078 128.749.32a1.03 1.03 0 0 0-1.492 0c-4.048 5.759-23.863 33.487-46.874 60.788-197.507 275.384 44.786 382.14 44.786 382.14.963.536 1.294.536 1.294.536L128.001 552s.644-.242 1.293-.536c0 0 242.293-106.756 46.328-390.356"></path>
  <path fill="#A6A385" d="M128 414.744s-19.492-196.588 19.957-196.588c26.573 19.958 19.958 196.588 19.958 196.588h-39.915z"></path>
  <path fill="#EDEDEB" d="M147.957 218.156c0-.158-39.574-.158-39.574 0 0 .158-.37 196.588 19.787 196.588s19.787-196.43 19.787-196.588z"></path>
</svg> 