<?xml version="1.0" encoding="UTF-8" standalone="no"?>
<svg xmlns="http://www.w3.org/2000/svg" width="256" height="289" viewBox="0 0 256 289">
  <path fill="#539E43" d="M128.005 288.758l-20.16-11.476c-6.087-3.254-3.043-4.407-1.22-5.06 8.177-2.717 9.745-3.32 18.348-8.177 1.003-.478 2.158-.173 3.09.478l15.45 9.095c1.22.652 2.937.652 3.993 0l60.188-34.545c1.22-.652 1.962-2.024 1.962-3.372V129.872c0-1.395-.741-2.767-1.962-3.471l-60.033-34.545c-1.22-.696-2.81-.696-3.993 0l-60.033 34.545c-1.22.652-1.962 2.076-1.962 3.471v68.991c0 1.347.741 2.626 1.962 3.32l16.443 9.439c17.999 8.977 29.027-1.59 29.027-12.265v-68.034c0-2.024 1.596-3.558 3.558-3.558h7.642c1.914 0 3.558 1.587 3.558 3.558v68.087c0 23.982-13.09 37.81-35.938 37.81-7.017 0-12.571 0-27.957-7.642l-15.953-9.134c-3.885-2.24-6.348-6.5-6.348-11.037V129.87c0-4.54 2.463-8.846 6.348-11.037l60.188-34.594c3.798-2.114 8.846-2.114 12.571 0l60.188 34.594c3.885 2.24 6.348 6.5 6.348 11.037v68.991c0 4.54-2.462 8.798-6.348 11.037l-60.188 34.594c-1.857 1.165-4.072 1.742-6.292 1.742l.086.035z"></path>
  <path fill="#539E43" d="M159.206 183.19c-26.406 0-31.9-12.127-31.9-22.26 0-1.004.783-2.024 1.982-2.024h7.773c1.004 0 1.84.74 1.982 1.723 1.378 9.252 5.45 13.912 20.214 13.912 12.45 0 17.759-2.81 17.759-9.397 0-3.798-1.483-6.657-20.903-8.573-16.209-1.662-26.232-5.19-26.232-18.011 0-11.863 10.023-18.971 26.884-18.971 18.923 0 28.25 6.57 29.432 20.667.044.87-.218 1.7-.783 2.337-.566.609-1.35.957-2.159.957h-7.816c-.914 0-1.723-.652-1.982-1.517-2.177-9.718-7.556-12.84-16.758-12.84-12.32 0-13.747 4.28-13.747 7.513 0 3.885 1.7 5.015 20.254 7.208 18.228 2.16 26.884 5.234 26.884 19.28 0 12.813-10.72 20.972-29.502 20.972l.609.022z"></path>
</svg> 